<svg xmlns="http://www.w3.org/2000/svg" width="60" height="60" fill="none"><g fill="#fff" clip-path="url(#a)"><path d="m34.178 26.528 21.99 8.057a2.06 2.06 0 0 1 1.156 1.081c.233.506.265 1.089.087 1.619a2.09 2.09 0 0 1-1.034 1.208 1.947 1.947 0 0 1-1.548.091l-25.15-9.213 3.89-27.56a2.138 2.138 0 0 1 .795-1.392 1.99 1.99 0 0 1 .715-.355A1.941 1.941 0 0 1 36.613.3c.229.143.428.331.587.554.159.224.274.478.339.747.065.27.078.55.04.826l-3.401 24.101Z"/><path d="m43.171 20.845 14.864 5.446c.507.186.923.575 1.156 1.081.233.507.264 1.089.087 1.62-.178.53-.55.964-1.035 1.207a1.948 1.948 0 0 1-1.548.091l-18.023-6.602 2.787-19.752a2.138 2.138 0 0 1 .796-1.392 1.99 1.99 0 0 1 .714-.354 1.941 1.941 0 0 1 1.535.236c.228.142.427.33.586.554a2.176 2.176 0 0 1 .379 1.573l-2.3 16.292h.002Z"/><path d="m52.167 15.16 3.673 1.345c.507.187.922.576 1.155 1.082.233.506.264 1.088.087 1.618a2.09 2.09 0 0 1-1.034 1.209 1.947 1.947 0 0 1-1.549.09l-6.829-2.5 1.054-7.484a2.137 2.137 0 0 1 .796-1.392c.214-.166.456-.287.714-.354a1.941 1.941 0 0 1 1.535.236c.229.143.428.331.587.554a2.213 2.213 0 0 1 .379 1.573l-.568 4.024ZM29.782 34.866l-17.67 15.883a1.97 1.97 0 0 1-1.457.463 2 2 0 0 1-1.354-.73 2.182 2.182 0 0 1-.487-1.508 2.16 2.16 0 0 1 .656-1.438l20.206-18.163 20.886 17.303c.209.173.383.387.512.63a2.212 2.212 0 0 1 .178 1.612 2.155 2.155 0 0 1-.36.736c-.166.218-.371.4-.604.535a1.94 1.94 0 0 1-1.542.186 1.996 1.996 0 0 1-.703-.377l-18.265-15.13.004-.002Z"/><path d="M29.995 45.85 18.051 56.586c-.41.35-.933.517-1.46.469a2 2 0 0 1-1.358-.729 2.181 2.181 0 0 1-.487-1.513c.033-.552.27-1.068.662-1.44l14.481-13.016 14.967 12.4c.21.173.383.387.513.63s.212.511.242.788c.031.276.01.556-.064.824a2.155 2.155 0 0 1-.361.736c-.166.218-.37.4-.603.535a1.942 1.942 0 0 1-1.541.186 1.997 1.997 0 0 1-.704-.378L29.992 45.85h.003Z"/><path d="m30.206 56.835-2.95 2.652c-.41.35-.933.518-1.46.47a2 2 0 0 1-1.359-.73 2.182 2.182 0 0 1-.486-1.513c.032-.551.27-1.068.661-1.439l5.488-4.933 5.67 4.698c.209.173.383.387.513.63a2.21 2.21 0 0 1 .179 1.612 2.154 2.154 0 0 1-.362.736c-.165.218-.37.4-.603.535a1.942 1.942 0 0 1-1.541.186 1.994 1.994 0 0 1-.704-.378l-3.049-2.526h.003Zm-5.13-30.116L20.755 2.78a2.21 2.21 0 0 1 .306-1.602c.15-.233.342-.432.566-.586.224-.154.475-.26.739-.312a1.94 1.94 0 0 1 .797.01c.262.058.51.17.731.33.22.16.409.364.553.6.145.236.243.5.29.776l4.942 27.376-24.776 10.26c-.5.207-1.058.198-1.551-.025a2.08 2.08 0 0 1-1.08-1.164 2.204 2.204 0 0 1 .023-1.623 2.14 2.14 0 0 1 .45-.68c.191-.194.417-.346.665-.448l21.666-8.972Z"/><path d="M15.867 21.417 12.945 5.235a2.211 2.211 0 0 1 .309-1.599c.15-.232.342-.43.566-.584a1.94 1.94 0 0 1 1.533-.302c.261.058.51.17.73.329.22.159.409.362.553.597.145.236.244.499.29.774l3.543 19.62-17.755 7.352a1.947 1.947 0 0 1-1.52-.063 2.083 2.083 0 0 1-1.051-1.151 2.21 2.21 0 0 1 .011-1.592 2.078 2.078 0 0 1 1.067-1.134l14.644-6.064.002-.001Z"/><path d="m6.664 16.113-.723-3.997a2.212 2.212 0 0 1 .308-1.598c.15-.232.342-.431.566-.585.224-.154.474-.26.738-.311a1.94 1.94 0 0 1 .795.009c.262.058.51.17.73.329.221.159.41.362.554.598.145.235.243.498.29.774l1.343 7.433-6.727 2.786a1.947 1.947 0 0 1-1.52-.063 2.082 2.082 0 0 1-1.051-1.151 2.21 2.21 0 0 1 .011-1.591 2.08 2.08 0 0 1 1.068-1.135l3.615-1.498h.003Z"/></g><defs><clipPath id="a"><path fill="#fff" d="M0 0h60v60H0z"/></clipPath></defs></svg>