<svg xmlns="http://www.w3.org/2000/svg" width="60" height="60" fill="none"><g fill="#fff" clip-path="url(#a)"><path d="m52.745 45.608-7.547 7.722 1.591 1.628 7.548-7.723-1.592-1.627ZM35.343 57.623c6.883-6.928 15.11-15.38 21.809-22.314l1.59 1.629-3.427 3.465c-6 6.112-11.72 11.92-18.38 18.848l-1.592-1.628Zm-6.39.747c5.697-5.703 3.174-3.171 11.802-11.853 4.027-4.07.924-.843 16.946-17.562l1.592 1.63C43.34 46.59 46.49 43.387 39.553 50.602c-5.48 5.702-3.671 3.814-9.007 9.397l-1.592-1.629v-.001Zm-5.14-.532.377-.386c6.381-6.565 11.49-10.974 22.724-22.914 8.455-8.988 8.412-8.958 10.452-11.03l1.592 1.628c-1.443 1.483-1.584 1.616-3.118 3.146-24.145 23.776-19.772 20.291-30.435 31.183l-1.592-1.63v.003Zm-4.398-1.29c5.613-5.751 13.657-13.121 18.76-18.341C42.704 33.553 52.193 22.95 55.69 19.43l.413-.42 1.592 1.628-.41.423c-3.512 3.654-13.792 13.275-18.351 17.919-5.33 5.454-11.897 13.032-17.926 19.196l-1.592-1.63Zm-3.983-1.717.436-.445c7.799-7.981 16.198-14.988 23.082-22.572 7.113-7.785 7.601-8.69 15.261-16.663l1.592 1.629c-2.374 2.39-5.203 5.182-7.642 7.482-21.272 19.966-18.293 19.056-30.705 31.75l-.434.446-1.592-1.628.002.001Zm-3.354-2.36c22.437-22.798 5.129-2.64 33.911-34.433.544-.607 3.813-4.196 6.128-6.534l1.59 1.63c-.68.707-.625.652-1.723 1.754-17.869 17.625-8.851 6.654-30.781 31.12a276.102 276.102 0 0 1-7.531 8.093l-1.592-1.628-.002-.002Zm17.563-22.139c3.463-3.6 11.823-13.649 19.724-21.808l.235-.236 1.592 1.629-.231.24-.662.67c-8.187 8.183-17.33 16.166-20.653 19.513l-.007-.008h.002Z"/><path d="M8.934 49.898c8.538-8.67 18.387-17.239 21.192-20.063l.008.008c-2.825 2.938-11.569 13.394-19.608 21.683l-1.592-1.629ZM6.417 46.68a260.785 260.785 0 0 1 9.552-9.23c10.537-9.672 10.962-9.965 21.459-21.972 1.692-1.94 6.913-7.624 8.577-9.307.294-.3.451-.458.451-.458l1.592 1.629-.447.461c-1.66 1.718-7.215 7.06-9.097 8.776-19.342 17.7-15.626 16.41-30.495 31.73L6.417 46.68Zm-2.305-3.432c7.834-7.96 15.816-14.996 18.686-17.974 4.306-4.072 12.41-13.82 20.307-21.92l1.592 1.628c-3.17 3.236-6.34 6.28-9.265 9.027-18.164 17.005-16.92 17.674-29.725 30.868l-1.593-1.629h-.002Zm-1.676-4.072C15.392 25.904 10.667 32.323 33.482 7.6c3.299-3.545 3.925-4.225 5.638-5.961l1.592 1.628c-3.604 3.722-13.858 13.475-15.3 14.88-7.092 6.891-14.433 15.551-21.386 22.657l-1.592-1.629h.002Zm-1.263-4.501c2.65-2.704 4.474-4.478 5.306-5.3C26.759 9.428 20.895 14.652 34.723.345l1.592 1.629C15.64 22.894 38.495-1.097 4.2 34.822c-1.248 1.288-.962.993-1.437 1.481L1.17 34.675h.003Zm-.519-5.26C17.396 12.623 13.257 16.86 29.404 0l1.592 1.629C14.84 17.829 18.88 13.683 2.247 31.044L.654 29.415Zm.519-6.322C8.206 16.01 16.619 7.37 23.403.346l1.593 1.63C18.166 8.881 9.588 17.627 2.764 24.721l-1.591-1.629ZM14.175 3.998l-9.013 9.224 1.59 1.627 9.015-9.223-1.59-1.628h-.002Z"/></g><defs><clipPath id="a"><path fill="#fff" d="M.654 0h58.641v60H.655z"/></clipPath></defs></svg>