<svg xmlns="http://www.w3.org/2000/svg" width="62" height="60" fill="none"><g fill="#fff" clip-path="url(#a)"><path d="M21.395 30C14.04 27.807 7.75 23.195 3.493 17.113A29.344 29.344 0 0 0 .522 30a29.35 29.35 0 0 0 2.97 12.887C7.75 36.805 14.04 32.196 21.396 30Zm9.734-9.541c2.239-7.209 6.944-13.374 13.149-17.547A30.947 30.947 0 0 0 31.129 0a30.94 30.94 0 0 0-13.148 2.912C24.187 7.085 28.89 13.25 31.129 20.46Z"/><path d="M29.65 31.453c-10.388.487-19.435 6.072-24.586 14.256 2.52 4 5.958 7.37 10.04 9.84 8.348-5.05 14.049-13.916 14.546-24.096Z"/><path d="M31.13 39.542c-2.238 7.208-6.943 13.374-13.149 17.546A30.947 30.947 0 0 0 31.129 60c4.55.005 9.043-.99 13.149-2.912-6.206-4.172-10.909-10.338-13.149-17.546Zm-1.48-10.993C29.151 18.368 23.453 9.5 15.104 4.45a30.548 30.548 0 0 0-10.04 9.84c5.153 8.182 14.198 13.768 24.585 14.256v.002ZM40.864 30c7.355 2.194 13.645 6.806 17.902 12.887A29.337 29.337 0 0 0 61.737 30a29.342 29.342 0 0 0-2.971-12.887C54.509 23.195 48.219 27.805 40.864 30Z"/><path d="M32.61 28.55c10.388-.488 19.435-6.074 24.585-14.257-2.52-4-5.958-7.37-10.04-9.84-8.348 5.05-14.047 13.915-14.545 24.099v-.003Zm0 2.903c.498 10.18 6.197 19.048 14.546 24.096a30.546 30.546 0 0 0 10.04-9.84c-5.153-8.183-14.198-13.77-24.586-14.256Zm-2.892-.069c-.022 0-.044 0-.066-.002 0 .023 0 .047-.002.068l.07-.001c0-.023 0-.044-.002-.065Zm0-2.769c0-.021 0-.042.002-.064-.024 0-.048 0-.07-.002 0 .024 0 .047.002.069.023 0 .044 0 .066-.003Zm2.825 2.77c0 .02 0 .042-.002.064l.07.001c0-.023 0-.047-.002-.068-.023 0-.045 0-.066.002Zm0-2.77c.022 0 .044 0 .066.003l.001-.07c-.023 0-.048 0-.07.003 0 .022 0 .043.003.064Z"/></g><defs><clipPath id="a"><path fill="#fff" d="M.521 0h61.216v60H.521z"/></clipPath></defs></svg>