<svg xmlns="http://www.w3.org/2000/svg" width="178" height="19" fill="none"><path fill="#fff" d="M6.456 3.91h2.352v9.204c-.004.843-.183 1.57-.537 2.18a3.588 3.588 0 0 1-1.483 1.4c-.63.323-1.365.485-2.205.485-.767 0-1.457-.136-2.07-.41a3.375 3.375 0 0 1-1.452-1.226C.703 15 .524 14.328.524 13.523h2.359c.004.353.08.658.23.914.153.256.364.452.633.588.268.136.577.204.927.204.379 0 .7-.078.965-.236.264-.162.464-.4.6-.716.141-.315.214-.703.218-1.163V3.909ZM13.062 17h-2.531L15.14 3.91h2.927L22.682 17h-2.531L16.654 6.594h-.102L13.062 17Zm.083-5.133h6.904v1.905h-6.904v-1.905ZM32.66 3.91h2.371v8.553c0 .937-.222 1.762-.665 2.473-.439.712-1.057 1.268-1.854 1.669-.796.396-1.727.594-2.793.594-1.07 0-2.003-.198-2.8-.594-.796-.4-1.414-.957-1.853-1.669-.44-.711-.659-1.536-.659-2.473V3.909h2.372v8.355c0 .545.12 1.03.358 1.457.243.426.584.76 1.023 1.003.439.24.958.358 1.56.358.6 0 1.12-.119 1.559-.358a2.548 2.548 0 0 0 1.023-1.003c.238-.426.358-.912.358-1.457V3.909ZM37.608 17V3.91h4.909c1.005 0 1.85.174 2.53.523.687.35 1.205.84 1.554 1.47.354.627.53 1.358.53 2.193 0 .84-.178 1.568-.536 2.186-.354.614-.876 1.089-1.566 1.425-.69.333-1.539.499-2.544.499h-3.497v-1.969h3.177c.588 0 1.07-.08 1.445-.243.375-.166.652-.407.83-.722.184-.32.276-.712.276-1.176 0-.465-.092-.86-.275-1.189a1.748 1.748 0 0 0-.838-.754c-.375-.175-.858-.262-1.45-.262h-2.174V17h-2.371Zm6.762-5.932L47.611 17h-2.646l-3.183-5.932h2.588ZM53.75 17h-4.435V3.91h4.525c1.3 0 2.416.261 3.35.785a5.256 5.256 0 0 1 2.16 2.244c.503.976.754 2.143.754 3.503 0 1.363-.253 2.535-.76 3.515a5.258 5.258 0 0 1-2.18 2.257c-.946.524-2.084.786-3.413.786Zm-2.064-2.052h1.95c.912 0 1.672-.166 2.282-.498.609-.337 1.067-.838 1.374-1.503.307-.669.46-1.504.46-2.505 0-1.002-.153-1.833-.46-2.493-.307-.665-.76-1.161-1.362-1.49-.596-.332-1.338-.498-2.224-.498h-2.02v8.987ZM62.358 17V3.91h8.514v1.987h-6.143v3.554h5.702v1.988h-5.702v3.573h6.194V17h-8.565ZM84.049 3.91V17h-2.11l-6.168-8.917h-.108V17H73.29V3.91h2.122l6.162 8.922h.115V3.91h2.359ZM91.098 17V3.91h2.371v5.54h6.066V3.909h2.378V17h-2.378v-5.561H93.47V17h-2.371Zm21.646-13.09h2.372v8.552c0 .937-.222 1.762-.665 2.473-.439.712-1.057 1.268-1.854 1.669-.796.396-1.728.594-2.793.594-1.069 0-2.003-.198-2.8-.594-.796-.4-1.414-.957-1.853-1.669-.439-.711-.659-1.536-.659-2.473V3.909h2.372v8.355c0 .545.119 1.03.358 1.457.243.426.584.76 1.022 1.003.439.24.959.358 1.56.358.601 0 1.121-.119 1.56-.358a2.553 2.553 0 0 0 1.023-1.003c.238-.426.357-.912.357-1.457V3.909Zm13.719 4.18a3.357 3.357 0 0 0-.441-.927 2.843 2.843 0 0 0-.664-.71 2.682 2.682 0 0 0-.883-.44 3.674 3.674 0 0 0-1.086-.154c-.703 0-1.33.177-1.879.53-.55.354-.983.874-1.298 1.56-.311.682-.467 1.513-.467 2.493 0 .988.156 1.826.467 2.512.311.686.744 1.208 1.298 1.566.554.354 1.197.53 1.93.53.665 0 1.24-.127 1.726-.383.49-.256.867-.618 1.131-1.087.264-.473.397-1.027.397-1.662l.536.083h-3.554v-1.853h5.312v1.572c0 1.12-.238 2.09-.716 2.909a4.89 4.89 0 0 1-1.968 1.892c-.836.438-1.794.658-2.877.658-1.206 0-2.265-.27-3.177-.812-.907-.545-1.617-1.319-2.128-2.32-.507-1.006-.761-2.199-.761-3.58 0-1.056.149-2 .448-2.831.302-.831.724-1.537 1.265-2.116a5.382 5.382 0 0 1 1.905-1.33 6.065 6.065 0 0 1 2.378-.46c.724 0 1.4.107 2.026.32a5.353 5.353 0 0 1 1.668.895 4.872 4.872 0 0 1 1.829 3.145h-2.417Zm4.818 8.91V3.91h2.372v5.54h6.066V3.909h2.378V17h-2.378v-5.561h-6.066V17h-2.372Zm13.395 0V3.91h8.514v1.987h-6.143v3.554h5.702v1.988h-5.702v3.573h6.194V17h-8.565Zm18.048-9.492c-.06-.558-.311-.993-.754-1.304-.439-.311-1.01-.467-1.713-.467-.495 0-.919.075-1.272.224-.354.15-.625.351-.812.607a1.472 1.472 0 0 0-.288.876c0 .273.062.51.185.71.128.2.301.37.518.51.218.137.458.252.723.346.264.094.53.173.799.236l1.227.307c.494.115.969.27 1.425.467.46.196.872.443 1.234.741.366.299.656.659.869 1.08.213.423.32.917.32 1.484 0 .767-.196 1.442-.588 2.026-.392.58-.959 1.033-1.701 1.361-.737.324-1.629.486-2.678.486-1.018 0-1.902-.157-2.652-.473-.746-.315-1.33-.775-1.752-1.38-.418-.606-.643-1.343-.677-2.212h2.333c.034.456.174.835.422 1.138.247.302.568.528.965.677.4.15.848.224 1.342.224.516 0 .967-.077 1.355-.23.392-.158.699-.375.921-.652.221-.281.334-.61.338-.985-.004-.34-.104-.622-.3-.843-.196-.226-.471-.414-.825-.563a7.917 7.917 0 0 0-1.227-.409l-1.489-.383c-1.078-.277-1.931-.697-2.557-1.26-.622-.566-.933-1.319-.933-2.256 0-.771.209-1.447.626-2.026.422-.58.995-1.03 1.72-1.35.724-.323 1.544-.485 2.461-.485.929 0 1.742.162 2.441.486.703.32 1.255.765 1.656 1.336.4.567.607 1.219.62 1.956h-2.282ZM173 5.281a4.22 4.22 0 0 0-4.138 5.042 4.221 4.221 0 0 0 7.646 1.52 4.22 4.22 0 0 0 .711-2.343A4.222 4.222 0 0 0 173 5.281Zm0 7.5a3.283 3.283 0 0 1-2.32-5.601 3.28 3.28 0 1 1 4.639 4.64 3.284 3.284 0 0 1-2.319.961Zm1.121-2.757a1.404 1.404 0 0 0 .53-1.573 1.404 1.404 0 0 0-1.338-.982h-1.25a.469.469 0 0 0-.469.468v3.125a.468.468 0 1 0 .937 0v-.78h.635l.693 1.04a.47.47 0 0 0 .851-.167.467.467 0 0 0-.069-.353l-.52-.778Zm-1.59-1.618h.782a.468.468 0 0 1 0 .938h-.782v-.938Z"/></svg>